<?xml version="1.0" standalone="no"?>
<!DOCTYPE svg PUBLIC "-//W3C//DTD SVG 20010904//EN"
 "http://www.w3.org/TR/2001/REC-SVG-20010904/DTD/svg10.dtd">
<svg version="1.0" xmlns="http://www.w3.org/2000/svg"
 width="2031.000000pt" height="2031.000000pt" viewBox="0 0 2031.000000 2031.000000"
 preserveAspectRatio="xMidYMid meet">
<metadata>
Created by potrace 1.14, written by Peter Selinger 2001-2017
</metadata>
<g transform="translate(0.000000,2031.000000) scale(0.100000,-0.100000)"
fill="#000000" stroke="none">
<path d="M10184 20294 c-390 -46 -739 -273 -903 -586 -48 -91 -116 -289 -126
-368 -16 -117 -14 -212 10 -365 15 -104 111 -322 190 -435 91 -130 232 -277
332 -348 l32 -23 -4 -337 c-2 -185 -7 -530 -10 -767 -3 -236 -8 -596 -10 -800
-3 -203 -7 -514 -10 -690 -2 -176 -7 -486 -10 -690 -3 -203 -7 -498 -10 -655
-7 -444 -16 -1041 -20 -1310 -6 -419 -17 -1086 -20 -1285 -2 -104 -4 -257 -4
-338 l-1 -148 -62 34 c-35 19 -122 68 -195 110 -131 76 -167 97 -253 145 -25
14 -73 43 -108 64 -34 21 -64 38 -66 38 -2 0 -55 30 -117 66 -63 37 -127 74
-144 84 -16 9 -91 52 -165 95 -74 43 -149 86 -165 95 -17 9 -87 50 -155 90
-69 40 -140 81 -157 91 -18 10 -119 69 -225 130 -106 62 -267 155 -358 207
-91 52 -298 172 -460 267 -162 94 -302 174 -310 178 -8 4 -30 16 -49 28 -57
34 -525 305 -541 312 -8 4 -24 13 -35 20 -17 10 -43 26 -157 92 -51 30 -250
144 -298 171 -30 17 -152 87 -270 156 -118 69 -305 177 -415 240 -110 63 -256
147 -324 187 -68 39 -125 71 -126 71 -2 0 -36 19 -77 43 -40 24 -93 55 -118
69 -25 14 -205 117 -400 228 -195 112 -375 214 -400 228 -67 37 -97 60 -97 74
-2 37 -47 210 -87 334 -82 251 -191 414 -379 562 -202 159 -427 235 -702 237
-131 0 -209 -9 -328 -40 -335 -87 -593 -289 -733 -573 -110 -225 -148 -409
-122 -589 4 -32 10 -71 12 -88 3 -16 9 -42 15 -57 6 -16 8 -28 6 -28 -2 0 9
-36 25 -79 69 -189 172 -353 311 -498 l60 -63 -6 -432 c-3 -238 -7 -622 -10
-853 -2 -231 -7 -582 -10 -780 -3 -198 -7 -538 -10 -755 -6 -460 -13 -925 -20
-1375 -3 -176 -7 -455 -10 -620 -5 -326 -15 -893 -20 -1180 -2 -99 -6 -362
-10 -585 -4 -223 -8 -447 -9 -498 l-2 -94 -50 -46 c-294 -272 -446 -666 -401
-1037 34 -274 213 -566 452 -736 102 -72 293 -161 395 -184 142 -32 176 -36
313 -39 115 -3 236 10 347 38 54 14 56 14 105 -14 77 -43 328 -189 345 -200 8
-6 27 -16 42 -23 16 -6 28 -15 28 -19 0 -4 4 -8 9 -8 5 0 87 -46 183 -101 95
-56 193 -113 218 -127 25 -14 110 -63 190 -110 80 -47 170 -99 200 -115 30
-17 78 -46 107 -64 29 -18 54 -33 57 -33 3 0 50 -26 103 -58 54 -32 118 -70
143 -84 25 -14 158 -90 295 -170 138 -80 264 -153 280 -162 17 -9 44 -25 60
-35 17 -10 131 -76 255 -148 124 -71 281 -163 350 -203 69 -40 139 -80 155
-90 17 -9 129 -74 250 -145 121 -70 241 -139 266 -154 76 -44 623 -362 639
-372 8 -5 179 -104 380 -220 201 -117 457 -266 570 -331 263 -153 611 -357
630 -368 26 -16 207 -121 422 -245 136 -79 207 -126 208 -137 0 -27 69 -217
102 -282 91 -181 263 -379 422 -486 145 -97 329 -167 486 -186 56 -6 261 -6
296 0 10 2 44 7 74 11 239 32 498 187 686 410 109 129 183 260 245 435 41 118
15 94 219 202 47 25 141 76 210 113 69 37 163 88 210 113 47 25 137 73 200
107 63 34 156 84 205 110 50 26 125 68 169 92 43 23 80 43 82 43 2 0 88 46
191 101 104 56 220 118 258 139 138 74 341 183 395 213 30 16 93 50 140 75 47
24 137 73 200 107 63 34 151 82 195 105 44 23 103 55 130 70 28 15 95 51 150
80 55 29 105 56 110 60 6 4 60 33 120 65 61 32 198 105 305 163 107 58 229
123 270 145 41 22 102 54 135 72 92 50 568 305 680 365 55 29 105 56 110 60 6
4 60 33 120 65 61 32 124 65 140 75 17 9 75 41 130 70 55 29 156 83 225 120
69 37 170 91 225 120 55 29 118 63 140 75 22 12 78 43 125 68 47 24 173 92
280 149 107 58 240 129 295 158 55 29 117 63 139 75 36 20 42 21 105 9 120
-23 355 -33 451 -20 19 3 58 8 85 12 75 9 191 42 270 76 68 30 184 99 215 129
8 8 42 37 74 64 248 208 378 488 379 815 1 142 -7 215 -37 322 -57 204 -153
375 -287 504 l-50 49 6 695 c3 382 8 790 10 905 5 280 15 801 20 1005 18 754
26 1072 40 1585 2 83 7 251 10 375 3 124 7 295 10 380 2 85 7 277 10 425 3
149 8 347 10 440 9 396 22 1108 24 1345 l2 125 50 55 c145 159 251 371 295
585 22 107 27 323 10 411 -3 12 -7 37 -10 55 -14 87 -83 265 -139 354 -80 129
-248 299 -363 366 -134 78 -301 136 -449 155 -27 3 -59 8 -70 10 -29 6 -315 5
-350 -1 -185 -32 -159 -38 -355 76 -96 55 -245 141 -330 191 -85 49 -162 93
-170 98 -36 23 -313 180 -317 180 -2 0 -16 8 -31 19 -15 10 -151 90 -302 177
-151 86 -354 203 -450 259 -96 57 -192 112 -213 124 -21 12 -108 62 -192 111
-84 49 -171 99 -192 111 -21 12 -51 30 -68 40 -16 10 -61 36 -100 58 -38 22
-92 54 -120 70 -27 16 -66 38 -85 49 -19 11 -285 165 -590 342 -305 177 -645
374 -755 437 -110 64 -248 144 -308 179 -59 35 -110 64 -113 64 -2 0 -17 8
-32 19 -15 10 -133 79 -262 153 -129 75 -364 210 -521 301 -157 91 -301 174
-320 185 -19 10 -94 54 -166 96 -73 42 -193 110 -265 152 -73 42 -152 92 -175
111 -65 52 -125 145 -204 309 -146 309 -168 340 -324 459 -49 38 -92 71 -95
74 -8 9 -47 30 -130 72 -193 96 -416 131 -656 103z m1561 -2454 c418 -244 775
-451 793 -462 57 -32 92 -52 452 -263 195 -114 373 -217 395 -230 37 -21 84
-48 410 -238 66 -38 148 -86 183 -106 35 -20 71 -40 80 -46 9 -5 71 -41 137
-79 66 -38 153 -89 192 -113 40 -24 75 -43 79 -43 3 0 25 -13 49 -30 24 -16
45 -30 48 -30 2 0 136 -77 298 -171 162 -94 353 -205 424 -246 72 -41 168 -97
215 -125 47 -27 108 -62 135 -78 28 -15 203 -117 390 -225 187 -109 358 -208
380 -220 115 -64 352 -206 440 -263 145 -95 326 -233 322 -245 -8 -24 -399
-283 -477 -316 -14 -6 -32 -15 -40 -21 -8 -6 -105 -58 -215 -116 -245 -130
-248 -131 -840 -449 -522 -280 -559 -300 -715 -385 -58 -32 -150 -82 -205
-111 -55 -29 -121 -65 -147 -79 -25 -14 -70 -38 -100 -54 -29 -15 -100 -54
-158 -86 -58 -31 -145 -79 -195 -105 -49 -26 -137 -73 -195 -105 -58 -31 -141
-76 -185 -100 -135 -72 -208 -112 -250 -135 -22 -12 -76 -42 -120 -65 -44 -23
-134 -72 -200 -108 -123 -66 -164 -88 -395 -212 -74 -40 -182 -98 -240 -130
-58 -31 -145 -79 -195 -105 -49 -26 -108 -58 -130 -70 -22 -12 -83 -45 -135
-73 -52 -27 -115 -61 -140 -74 -25 -14 -90 -49 -145 -78 -55 -29 -113 -60
-130 -70 -16 -10 -82 -45 -145 -78 -63 -33 -142 -75 -175 -92 -33 -18 -103
-55 -155 -82 -136 -72 -258 -138 -307 -164 l-43 -24 5 298 c4 276 8 509 20
1327 8 580 16 1086 20 1370 2 154 7 467 10 695 6 414 9 628 20 1365 3 215 8
525 10 690 17 1135 16 1109 29 1173 3 15 7 38 10 52 10 66 53 183 63 177 5 -2
350 -204 768 -447z m-9034 -4075 c107 -23 221 -72 392 -172 84 -48 164 -95
178 -103 130 -75 176 -102 189 -110 8 -5 62 -37 120 -70 58 -33 112 -64 120
-69 19 -12 249 -145 315 -183 28 -16 66 -38 85 -50 131 -76 361 -210 505 -293
94 -54 203 -117 242 -141 40 -24 75 -44 78 -44 2 0 29 -16 59 -35 30 -19 57
-35 59 -35 3 0 45 -24 94 -54 93 -55 151 -89 243 -139 30 -16 60 -33 65 -38
11 -8 165 -98 230 -134 22 -13 92 -53 155 -90 63 -37 135 -79 160 -93 25 -14
88 -51 140 -82 52 -31 102 -59 110 -63 8 -4 31 -17 50 -28 19 -12 141 -82 270
-157 129 -74 299 -173 378 -218 79 -46 145 -84 148 -84 3 0 17 -8 32 -19 15
-10 135 -81 267 -156 132 -76 323 -186 425 -245 177 -103 209 -121 310 -178
25 -14 92 -53 150 -87 58 -34 132 -77 165 -96 89 -50 97 -55 294 -169 100 -58
197 -114 216 -124 19 -11 35 -22 35 -25 0 -7 -22 -19 -138 -82 -42 -23 -97
-53 -122 -67 -25 -14 -67 -37 -95 -52 -27 -15 -72 -39 -100 -55 -27 -15 -77
-42 -110 -60 -33 -18 -82 -45 -110 -60 -27 -15 -75 -41 -105 -57 -30 -17 -77
-43 -105 -58 -27 -15 -81 -45 -120 -65 -68 -37 -93 -50 -205 -112 -99 -55
-523 -285 -590 -321 -36 -19 -108 -58 -160 -87 -52 -29 -135 -74 -185 -100
-49 -27 -129 -70 -178 -97 -48 -26 -89 -48 -91 -48 -2 0 -35 -17 -73 -38 -37
-22 -102 -57 -143 -79 -41 -22 -156 -84 -255 -138 -99 -54 -211 -114 -250
-135 -158 -85 -202 -108 -245 -132 -25 -14 -90 -49 -145 -78 -55 -29 -154 -82
-220 -118 -215 -116 -239 -129 -320 -172 -146 -78 -249 -133 -295 -158 -150
-82 -401 -216 -545 -292 -55 -29 -104 -56 -110 -60 -5 -4 -66 -36 -135 -72
-69 -36 -150 -79 -180 -95 -52 -28 -137 -74 -310 -166 -41 -22 -97 -52 -125
-67 -27 -15 -104 -56 -170 -90 -66 -35 -124 -66 -130 -70 -5 -4 -68 -37 -140
-75 -71 -37 -154 -81 -182 -97 l-53 -29 -1 23 c0 13 -2 30 -4 38 -31 152 -37
510 -22 1325 4 204 9 539 12 745 9 619 20 1381 30 2000 10 657 37 2715 37
2863 0 101 -7 96 109 72z m15149 -432 c5 -594 -4 -1253 -25 -1898 -3 -82 -7
-224 -10 -315 -8 -261 -16 -497 -20 -600 -2 -52 -7 -198 -10 -325 -4 -126 -8
-275 -10 -330 -11 -332 -24 -1282 -29 -2095 -3 -543 -8 -746 -21 -885 -3 -27
-7 -79 -10 -115 -3 -36 -7 -74 -10 -85 -2 -11 -4 -33 -5 -50 -2 -58 -83 -87
-162 -59 -20 7 -62 29 -92 48 -31 20 -84 50 -118 67 -35 17 -94 50 -133 74
-57 34 -288 168 -440 255 -16 10 -70 41 -120 70 -49 29 -108 63 -130 75 -22
12 -134 77 -250 145 -115 67 -228 132 -250 145 -22 12 -137 78 -255 147 -118
69 -336 195 -485 280 -148 86 -293 169 -321 185 -27 17 -70 41 -95 55 -24 14
-116 67 -204 118 -88 51 -261 151 -385 222 -124 71 -232 134 -240 138 -8 5
-45 28 -83 50 -37 22 -70 40 -73 40 -3 0 -30 16 -60 35 -30 19 -56 35 -58 35
-4 0 -214 121 -954 551 -260 151 -480 279 -490 284 -9 6 -49 28 -87 50 -39 22
-77 44 -86 50 -9 5 -34 20 -55 31 -22 12 -113 66 -204 119 -91 54 -186 110
-211 124 -220 125 -288 167 -286 174 1 5 54 35 117 68 127 67 340 179 410 217
25 13 101 53 170 89 69 36 130 69 135 73 6 4 64 35 130 70 66 34 147 77 180
95 33 18 96 51 140 75 44 23 112 60 150 80 85 46 200 107 280 150 33 18 92 49
130 69 145 77 251 134 280 151 17 10 104 57 195 105 206 110 203 108 680 365
217 117 433 233 480 258 47 25 103 55 125 67 80 44 172 93 245 132 41 22 100
54 130 70 30 16 125 67 210 113 85 45 178 95 205 110 28 15 95 51 150 80 55
29 114 61 130 70 17 10 62 34 100 55 39 21 97 52 130 70 33 18 104 55 157 84
54 28 117 62 140 75 41 22 118 63 271 145 39 21 140 75 222 119 290 156 361
193 425 223 70 34 314 118 342 119 15 0 17 -20 18 -207z m-8275 -4670 c-5
-542 -13 -1129 -20 -1673 -2 -184 -7 -524 -10 -755 -3 -231 -8 -550 -10 -710
-2 -159 -7 -492 -10 -740 -3 -247 -8 -574 -10 -725 -5 -304 -14 -1063 -20
-1605 -2 -192 -4 -363 -4 -378 -1 -26 -4 -28 -28 -23 -16 3 -48 8 -73 12 -48
6 -177 47 -225 71 -16 8 -166 94 -333 192 -363 211 -354 206 -394 231 -18 11
-45 26 -60 32 -16 7 -28 16 -28 20 0 4 -4 8 -9 8 -5 0 -45 21 -88 47 -43 25
-94 55 -113 65 -19 10 -48 27 -65 37 -38 23 -780 455 -990 576 -88 51 -227
132 -310 180 -82 48 -168 97 -190 110 -94 53 -361 209 -394 230 -20 12 -59 34
-86 49 -28 15 -65 35 -82 46 -47 28 -1022 594 -1058 614 -16 9 -37 21 -45 26
-43 27 -223 130 -228 130 -3 0 -13 6 -21 14 -9 7 -41 27 -71 43 -30 17 -134
76 -230 133 -96 56 -191 112 -210 123 -38 21 -194 112 -415 242 -77 45 -246
144 -375 220 -129 76 -237 140 -240 142 -10 9 142 129 260 205 111 72 208 126
415 233 248 128 379 197 390 205 6 4 55 31 110 60 55 29 123 65 150 80 28 15
82 44 120 65 39 21 212 114 385 207 173 94 353 191 400 216 47 24 99 53 115
62 17 9 71 39 120 65 50 26 117 62 150 80 33 18 96 52 140 75 44 24 103 55
130 70 28 15 91 49 140 75 50 26 167 89 260 140 94 50 211 113 260 140 50 26
117 62 150 80 33 18 96 52 140 75 44 24 103 55 130 70 28 15 91 49 140 75 50
26 153 82 230 123 77 41 176 94 220 118 44 23 103 54 130 69 28 15 88 47 135
72 47 25 108 58 135 73 28 15 109 58 180 95 72 38 135 71 140 75 6 4 64 35
130 70 66 35 152 80 190 100 39 21 105 56 148 79 42 22 110 58 150 80 39 21
117 62 172 91 126 66 256 136 320 172 28 15 54 28 58 28 4 0 5 -228 2 -507z
m1445 335 c96 -55 204 -117 240 -138 192 -113 412 -240 415 -240 2 0 32 -17
66 -38 35 -22 84 -50 109 -64 37 -21 233 -134 389 -225 56 -33 356 -206 386
-223 27 -15 448 -259 985 -570 107 -62 211 -122 230 -132 19 -11 118 -69 220
-128 102 -59 289 -167 415 -240 127 -73 257 -149 290 -168 33 -19 80 -46 105
-60 25 -13 50 -28 55 -32 6 -4 30 -19 55 -32 25 -14 122 -70 215 -125 94 -54
179 -104 190 -111 11 -6 99 -57 195 -113 96 -56 195 -113 220 -127 70 -40 863
-501 880 -512 8 -5 56 -32 105 -59 50 -27 100 -57 113 -66 33 -24 65 -94 65
-143 0 -56 -24 -87 -94 -125 -136 -73 -205 -110 -224 -122 -11 -7 -58 -33
-105 -57 -47 -25 -165 -89 -262 -142 -98 -53 -182 -96 -187 -96 -5 0 -11 -4
-13 -8 -2 -4 -46 -31 -98 -59 -52 -28 -221 -119 -375 -203 -154 -83 -314 -170
-355 -192 -41 -22 -88 -48 -105 -58 -16 -9 -70 -39 -120 -65 -49 -26 -108 -58
-130 -70 -22 -12 -69 -38 -105 -58 -155 -83 -574 -309 -668 -361 -56 -31 -105
-56 -107 -56 -2 0 -30 -15 -62 -34 -60 -34 -125 -70 -278 -151 -49 -26 -103
-56 -120 -65 -16 -10 -75 -41 -130 -70 -55 -29 -134 -72 -175 -95 -41 -23 -93
-51 -115 -62 -22 -11 -143 -76 -270 -145 -126 -69 -270 -147 -320 -173 -49
-26 -103 -56 -120 -65 -16 -9 -70 -39 -120 -65 -49 -26 -117 -62 -150 -80 -33
-18 -91 -50 -130 -70 -38 -21 -99 -54 -135 -73 -36 -19 -92 -49 -125 -67 -33
-18 -94 -50 -135 -72 -83 -45 -290 -157 -388 -210 -35 -19 -111 -59 -170 -90
-59 -31 -111 -59 -117 -63 -5 -4 -59 -33 -120 -65 -60 -32 -115 -62 -121 -67
-8 -6 -14 1 -19 19 -9 39 -24 126 -33 198 -12 101 -7 826 13 1925 2 113 6 392
10 620 3 228 8 537 10 685 3 149 7 437 10 640 3 204 7 546 10 760 3 215 8 518
10 675 2 157 7 494 11 750 5 393 10 754 13 862 l1 27 48 -30 c26 -17 126 -76
222 -131z"/>
</g>
</svg>
